<svg width="48" height="48" viewBox="0 0 48 48" fill="none" xmlns="http://www.w3.org/2000/svg">
<g clip-path="url(#clip0_7_65)">
<path d="M8.70173 25.5458C8.90137 25.9337 9.10434 26.3144 9.30686 26.6794C9.85065 27.6596 10.426 28.5908 10.9578 29.2665C11.2155 29.5937 11.5234 29.9399 11.8666 30.1948C12.1046 30.3715 12.9212 30.9241 13.8679 30.4739C13.8684 30.4737 13.8688 30.4734 13.8693 30.4732L13.224 29.1191M8.70173 25.5458L21.762 4.50823C21.1487 4.88671 20.4818 5.34335 19.8085 5.85556C19.9853 5.09503 20.224 4.30699 20.5308 3.51255C18.0285 5.13665 15.0555 7.7252 13.9344 10.0199C12.1544 13.6586 12.7716 20.328 13.1805 24.7462C13.2812 25.8348 13.3693 26.7867 13.4058 27.523C13.4604 27.5886 13.5089 27.643 13.5509 27.6871C13.5824 27.7201 13.6077 27.7446 13.6268 27.7619C13.6453 27.7787 13.6547 27.7859 13.6553 27.7863L13.6553 27.7864C13.655 27.7862 13.6535 27.785 13.6505 27.783C13.6487 27.7817 13.6463 27.7801 13.6433 27.7782C13.6358 27.7733 13.6236 27.7658 13.6068 27.7568C13.5752 27.7396 13.5154 27.7106 13.43 27.6861C13.4245 27.6845 13.4188 27.6829 13.413 27.6814C13.4468 28.5108 13.405 29.0331 13.224 29.1191M8.70173 25.5458C8.71 26.0062 8.74326 26.4707 8.80407 26.9417C9.08144 29.0902 9.94579 31.4788 11.7929 34.2968L12.2108 34.9343L11.9422 35.6476C11.1019 37.8796 10.4893 40.3164 10.1067 42.3719C10.6673 40.6372 11.3265 38.5855 12.1156 36.0467L12.3923 35.1563L13.3132 35.0104C14.8312 34.7698 16.1556 34.679 17.2813 34.6018C17.4182 34.5924 17.5521 34.5832 17.683 34.574C18.9236 34.4866 19.8453 34.3971 20.6695 34.1549C21.7438 33.8391 22.8033 33.2198 24.0629 31.5399C23.0076 31.356 22.0279 30.9743 21.2207 30.5351C20.4048 30.0913 19.6754 29.5424 19.1421 28.9606C18.8763 28.6707 18.6256 28.3361 18.4473 27.9665C18.276 27.6114 18.1124 27.0993 18.2109 26.5203L18.2114 26.5171C18.3125 25.9309 18.6722 25.5498 18.98 25.3371C19.2611 25.1429 19.5588 25.0427 19.7683 24.9848C20.1879 24.869 20.7086 24.807 21.181 24.7557C21.3227 24.7403 21.4689 24.725 21.6193 24.7093C22.5548 24.6117 23.6575 24.4966 24.8941 24.2231C26.8968 23.7802 29.2003 22.9303 31.3446 21.0879M8.70173 25.5458L31.3446 21.0879M13.224 29.1191C12.9653 29.2424 12.5439 28.8781 12.0464 28.2221L13.224 29.1191ZM25.3297 15.292C25.3301 15.2918 25.3304 15.2916 25.3308 15.2914L26.0712 16.5959L25.3297 15.292ZM25.3297 15.292C24.7204 15.6383 24.4205 16.2345 24.3728 16.8095C24.3294 17.3323 24.487 17.8034 24.6748 18.1615C25.0569 18.8901 25.7592 19.5387 26.6557 20.0275C27.7997 20.6514 29.3559 21.0744 31.3446 21.0879M25.3297 15.292L31.3446 21.0879" stroke="#281470" stroke-width="3"/>
</g>
<defs>
<clipPath id="clip0_7_65">
<rect width="48" height="48" fill="white"/>
</clipPath>
</defs>
</svg>
