<svg width="48" height="48" viewBox="0 0 48 48" fill="none" xmlns="http://www.w3.org/2000/svg">
<g clip-path="url(#clip0_7_52)">
<path d="M24 23.85L20.6 26.45C20.4 26.6167 20.2 26.6253 20 26.476C19.8 26.3267 19.7333 26.1347 19.8 25.9L21.1 21.7L17.6 18.9C17.4333 18.7333 17.3833 18.542 17.45 18.326C17.5167 18.11 17.6667 18.0013 17.9 18H22.2L23.5 13.9C23.5667 13.6667 23.7333 13.55 24 13.55C24.2667 13.55 24.4333 13.6667 24.5 13.9L25.8 18H30.05C30.2833 18 30.442 18.1087 30.526 18.326C30.61 18.5433 30.568 18.7347 30.4 18.9L26.85 21.7L28.15 25.9C28.2167 26.1333 28.15 26.3253 27.95 26.476C27.75 26.6267 27.55 26.618 27.35 26.45L24 23.85ZM24 42L14.65 45.1C13.9833 45.3333 13.3747 45.25 12.824 44.85C12.2733 44.45 11.9987 43.9167 12 43.25V30.55C10.7333 29.15 9.75 27.55 9.05 25.75C8.35 23.95 8 22.0333 8 20C8 15.5333 9.55 11.75 12.65 8.65C15.75 5.55 19.5333 4 24 4C28.4667 4 32.25 5.55 35.35 8.65C38.45 11.75 40 15.5333 40 20C40 22.0333 39.65 23.95 38.95 25.75C38.25 27.55 37.2667 29.15 36 30.55V43.25C36 43.9167 35.7247 44.45 35.174 44.85C34.6233 45.25 34.0153 45.3333 33.35 45.1L24 42ZM24 32C27.3333 32 30.1667 30.8333 32.5 28.5C34.8333 26.1667 36 23.3333 36 20C36 16.6667 34.8333 13.8333 32.5 11.5C30.1667 9.16667 27.3333 8 24 8C20.6667 8 17.8333 9.16667 15.5 11.5C13.1667 13.8333 12 16.6667 12 20C12 23.3333 13.1667 26.1667 15.5 28.5C17.8333 30.8333 20.6667 32 24 32Z" fill="#281470"/>
</g>
<defs>
<clipPath id="clip0_7_52">
<rect width="48" height="48" fill="white"/>
</clipPath>
</defs>
</svg>
